<?xml version="1.0" standalone="no"?>
<!DOCTYPE svg PUBLIC "-//W3C//DTD SVG 20010904//EN"
 "http://www.w3.org/TR/2001/REC-SVG-20010904/DTD/svg10.dtd">
<svg version="1.0" xmlns="http://www.w3.org/2000/svg"
 width="846.000000pt" height="480.000000pt" viewBox="0 0 846.000000 480.000000"
 preserveAspectRatio="xMidYMid meet">

<g transform="translate(0.000000,480.000000) scale(0.100000,-0.100000)"
fill="#000000" stroke="none">
<path d="M0 2400 l0 -2400 4230 0 4230 0 0 1815 0 1815 -97 0 c-388 0 -741
205 -941 545 -90 155 -142 345 -142 524 l0 101 -3640 0 -3640 0 0 -2400z
m6668 1757 c10 4 14 2 9 -3 -5 -5 10 -14 35 -20 l43 -12 -42 -1 c-44 -1 -51
-7 -33 -29 7 -9 7 -9 -2 -2 -22 18 -28 11 -29 -32 l-1 -43 -10 43 c-8 38 -11
42 -25 30 -15 -12 -15 -11 -4 10 11 21 10 22 -36 23 l-48 1 50 11 c50 12 50
12 60 62 l10 50 3 -47 c3 -39 6 -46 20 -41z m-1253 48 c-60 -8 -111 -12 -113
-10 -2 2 18 6 45 10 26 3 55 8 63 9 8 2 38 4 65 4 30 0 5 -6 -60 -13z m223 8
c-16 -2 -40 -2 -55 0 -16 2 -3 4 27 4 30 0 43 -2 28 -4z m65 -10 c-7 -2 -19
-2 -25 0 -7 3 -2 5 12 5 14 0 19 -2 13 -5z m54 -9 c-3 -3 -12 -4 -19 -1 -8 3
-5 6 6 6 11 1 17 -2 13 -5z m-482 -14 c-11 -5 -27 -9 -35 -9 -9 0 -8 4 5 9 11
5 27 9 35 9 9 0 8 -4 -5 -9z m240 -12 c-5 -13 -9 -75 -10 -138 -1 -73 0 -80 2
-20 4 123 7 135 42 149 67 28 189 6 283 -51 43 -27 128 -105 128 -117 0 -5 5
-11 11 -13 7 -2 12 -25 12 -53 0 -35 8 -67 28 -106 28 -56 59 -160 59 -196 0
-19 -31 -63 -44 -63 -3 0 -9 19 -13 43 -6 34 -9 15 -16 -93 -4 -74 -7 -147 -7
-162 0 -14 -4 -38 -10 -52 -11 -30 -3 -34 16 -8 28 36 12 -10 -42 -122 -71
-147 -76 -181 -38 -235 23 -32 41 -45 90 -61 34 -12 65 -20 70 -18 5 1 31 -8
58 -20 27 -12 52 -22 55 -22 4 0 20 -14 37 -32 l29 -32 -29 22 c-34 26 -60 28
-100 7 -39 -21 -78 -19 -131 6 -59 28 -91 67 -111 136 -17 60 -14 105 10 155
19 37 20 52 5 42 -6 -3 -4 4 4 17 8 13 25 71 37 129 12 58 29 128 37 157 19
63 13 197 -11 258 -14 34 -16 36 -12 10 17 -119 17 -113 5 -77 -8 27 -13 31
-24 22 -10 -8 -12 -26 -9 -63 l5 -52 -16 35 c-9 19 -30 70 -47 113 -17 42 -33
76 -35 73 -2 -2 3 -29 12 -61 11 -36 14 -66 9 -83 -4 -15 -6 -60 -5 -99 3 -60
0 -73 -12 -73 -8 0 -18 6 -20 13 -10 23 -7 -32 3 -57 9 -25 -2 -37 -15 -16 -3
6 -15 10 -26 10 -23 0 -25 15 -4 24 13 5 11 14 -14 58 -29 52 -39 90 -63 238
l-12 75 -8 -130 c-4 -71 -12 -150 -17 -175 -8 -41 -9 -36 -10 50 -2 91 -3 96
-29 115 -25 18 -26 18 -12 0 11 -14 15 -48 16 -144 0 -89 5 -139 16 -168 9
-24 13 -43 9 -43 -4 0 -17 19 -28 43 -22 42 -22 42 -23 12 -1 -41 -14 -16 -31
58 -18 81 -29 81 -14 -1 24 -121 57 -201 73 -176 4 6 17 14 30 18 18 6 22 4
22 -16 0 -28 17 -48 39 -48 13 0 14 2 2 9 -22 14 -5 28 29 23 25 -3 28 -7 19
-18 -9 -11 -7 -14 9 -14 17 0 25 11 37 53 17 58 45 75 45 28 l0 -26 20 25 20
25 0 -30 c0 -16 -13 -54 -29 -83 -17 -29 -37 -76 -46 -103 -13 -38 -35 -69
-84 -118 -101 -101 -220 -201 -240 -201 -9 0 -38 13 -64 30 -26 16 -54 27 -62
23 -9 -3 -25 -23 -36 -45 -13 -25 -39 -51 -74 -73 -73 -47 -79 -44 -20 10 l50
45 -77 -45 c-42 -25 -78 -52 -81 -59 -3 -8 -21 -17 -39 -21 -18 -4 -40 -14
-49 -21 -9 -8 -30 -16 -47 -17 -17 -1 -29 -4 -26 -6 5 -6 -36 -34 -79 -54 -36
-16 -37 -16 -28 0 6 10 15 25 22 33 9 12 10 12 5 -5 -5 -17 -4 -18 6 -5 25 31
63 50 98 50 26 0 31 3 20 10 -13 8 -12 10 3 10 9 0 17 4 17 8 0 4 21 21 46 37
55 35 154 124 137 125 -6 0 -15 -5 -18 -11 -14 -22 -204 -155 -248 -174 -26
-10 -47 -23 -47 -28 0 -4 -4 -6 -9 -3 -11 7 -72 -14 -86 -29 -5 -6 -16 -21
-23 -34 -11 -19 -11 -22 0 -15 7 4 0 -7 -16 -24 -20 -22 -32 -28 -37 -20 -5 7
-13 -3 -23 -26 -10 -24 -20 -35 -27 -30 -7 4 -9 3 -6 -3 3 -5 -1 -22 -9 -37
-7 -16 -14 -35 -14 -42 0 -8 -6 -14 -12 -14 -9 0 -8 -4 2 -10 8 -5 10 -10 4
-10 -17 0 -34 -77 -24 -111 18 -60 -10 -16 -30 49 -16 50 -19 80 -14 116 6 46
33 149 49 189 5 12 2 17 -11 17 -40 1 38 48 100 60 91 18 257 71 291 94 17 10
37 28 46 38 8 11 35 24 59 29 50 11 70 25 70 47 0 12 -4 11 -20 -6 -28 -30
-86 -44 -132 -32 -20 6 -40 15 -43 19 -3 5 4 7 15 4 16 -4 20 0 20 19 0 25 12
44 42 67 14 11 16 9 11 -9 -3 -13 -11 -19 -19 -16 -8 3 -14 3 -14 1 0 -6 61
-37 65 -33 15 17 62 131 70 171 2 9 -7 41 -20 69 -27 57 -26 65 2 49 25 -13
26 5 7 73 -17 60 -17 69 -3 60 13 -7 8 57 -6 90 -6 13 -5 17 3 13 6 -4 14 -21
17 -38 5 -23 10 -28 16 -18 6 10 12 3 24 -26 22 -56 29 -68 46 -73 11 -4 12
-2 2 9 -21 21 -16 25 36 25 44 0 48 -2 40 -18 -7 -14 -6 -16 6 -12 18 7 29 46
22 74 -6 25 0 25 26 3 20 -17 20 -17 13 2 -4 11 -9 27 -11 35 -5 21 -59 150
-78 185 -32 58 -10 -78 23 -147 l20 -41 -28 24 c-15 13 -28 27 -30 32 -2 4
-21 7 -43 7 -34 0 -41 4 -50 27 -15 40 -7 58 24 56 37 -2 34 13 -4 21 l-32 6
6 58 c3 31 13 77 22 101 8 24 15 58 15 75 l-1 31 -24 -40 c-26 -42 -32 -37
-15 12 9 26 9 27 -5 9 -8 -11 -15 -29 -15 -41 0 -11 -8 -32 -17 -45 -14 -20
-18 -48 -20 -140 -1 -63 -2 -117 -3 -120 0 -3 -14 22 -30 55 l-28 60 -9 -30
c-4 -16 -8 -60 -7 -96 1 -72 31 -150 81 -210 14 -16 22 -33 18 -37 -3 -4 -12
1 -19 10 -7 10 -16 14 -20 10 -4 -4 -7 -2 -5 3 5 22 -14 46 -31 40 -10 -3 -21
-1 -25 4 -3 7 0 8 9 5 10 -4 16 -1 16 9 0 20 -17 31 -25 17 -5 -8 -13 -6 -26
6 -27 24 -24 9 14 -68 17 -38 38 -68 46 -68 10 0 12 -9 6 -37 -13 -74 -30 -94
-124 -145 -27 -15 -31 -23 -31 -58 0 -22 5 -40 11 -40 5 0 8 -4 5 -9 -3 -4 10
-17 29 -27 41 -22 42 -25 13 -50 -12 -10 -18 -13 -14 -6 4 7 -9 1 -30 -13 -21
-14 -69 -35 -108 -46 -39 -11 -100 -29 -136 -40 -36 -10 -87 -22 -115 -25 -57
-6 -155 -52 -155 -71 0 -7 -5 -13 -12 -13 -6 0 -8 -3 -5 -7 4 -3 -2 -12 -12
-19 -10 -7 -26 -29 -35 -49 -10 -19 -21 -33 -26 -30 -4 3 -10 -2 -13 -10 -4
-10 -1 -12 10 -8 11 4 14 3 9 -6 -10 -16 -19 -75 -20 -136 -1 -41 5 -58 29
-92 17 -23 40 -47 53 -54 33 -18 27 -33 -10 -25 -46 9 -65 30 -114 132 -39 81
-44 99 -44 160 0 77 20 131 65 178 29 32 31 29 -29 61 -59 31 -79 123 -42 197
17 35 62 75 73 65 2 -3 -5 -23 -16 -46 -22 -41 -27 -86 -13 -108 5 -9 12 -1
20 22 16 43 92 112 168 152 111 58 243 69 367 30 l74 -24 36 31 c20 17 49 41
66 54 20 15 28 28 24 39 -4 11 -3 14 5 9 11 -7 17 7 12 29 -1 6 -3 17 -3 25 0
20 -57 91 -67 85 -5 -3 -10 7 -12 22 -2 16 -8 27 -15 26 -18 -4 -60 95 -74
172 -7 42 -10 111 -6 175 4 75 2 98 -5 80 -17 -44 -14 -249 5 -299 23 -60 20
-64 -8 -11 -76 146 -51 394 57 579 41 70 160 191 213 219 74 37 197 72 257 72
31 0 60 5 63 10 3 6 13 10 22 10 12 0 13 -6 8 -22z m300 12 c13 -5 14 -9 5 -9
-8 0 -24 4 -35 9 -13 5 -14 9 -5 9 8 0 24 -4 35 -9z m796 -17 c13 -16 12 -17
-3 -4 -10 7 -18 15 -18 17 0 8 8 3 21 -13z m-741 -3 c8 -5 11 -10 5 -10 -5 0
-17 5 -25 10 -8 5 -10 10 -5 10 6 0 17 -5 25 -10z m-701 -14 c-2 -2 -15 -9
-29 -15 -24 -11 -24 -11 -6 3 16 13 49 24 35 12z m946 -94 c-3 -3 -11 0 -18 7
-9 10 -8 11 6 5 10 -3 15 -9 12 -12z m55 -43 c0 -6 -7 -6 -20 1 -11 6 -20 15
-20 21 0 6 7 6 20 -1 11 -6 20 -15 20 -21z m113 -111 c35 -24 81 -101 149
-250 61 -135 88 -237 88 -328 0 -71 14 -100 47 -101 24 0 25 -2 9 -8 -20 -8
-20 -8 0 -13 27 -7 44 1 37 18 -4 11 3 13 39 8 34 -5 57 -1 93 15 62 28 91 27
110 -3 l16 -24 54 18 c96 33 151 74 216 161 45 59 50 56 12 -8 -58 -100 -189
-196 -269 -197 -30 -1 -37 -6 -54 -43 -11 -24 -20 -47 -20 -53 0 -5 -4 -10 -9
-10 -19 0 -21 20 -7 55 8 19 11 35 5 35 -5 0 -14 -12 -20 -27 -5 -15 -27 -41
-47 -59 -42 -37 -39 -44 26 -63 24 -7 42 -15 39 -17 -8 -8 -90 18 -106 33 -8
9 -17 10 -25 4 -7 -6 -32 -5 -69 2 -64 13 -68 31 -5 21 41 -7 56 13 18 23 -28
7 -21 37 9 41 14 2 34 10 45 17 12 7 49 19 83 25 35 7 60 17 57 22 -3 5 -13 7
-21 4 -8 -3 -24 -1 -35 5 -15 8 -31 6 -71 -11 -43 -19 -61 -21 -124 -15 -40 4
-71 10 -68 14 2 5 -7 14 -20 21 -14 7 -25 17 -25 22 0 4 -7 8 -15 8 -8 0 -14
3 -14 8 1 4 0 9 -1 12 -1 3 -3 17 -4 32 -2 21 1 25 11 16 11 -9 12 -6 4 16
-14 35 -5 33 14 -4 17 -33 21 -65 5 -40 -14 21 -12 3 2 -23 11 -21 11 -21 19
-2 11 29 10 160 -1 231 -6 34 -22 88 -36 120 -14 32 -33 79 -41 104 -23 69
-32 69 -16 -1 15 -64 13 -128 -2 -82 -4 12 -15 25 -24 28 -20 6 -110 93 -113
109 -2 12 -4 39 -7 71 -1 17 -3 18 -12 5 -9 -12 -10 -12 -5 3 3 10 6 31 6 47
0 24 4 28 24 26 13 -1 35 -10 49 -18z m-76 -280 c6 -13 14 -34 18 -48 35 -136
46 -174 60 -201 9 -17 19 -28 22 -25 3 3 1 11 -4 18 -15 18 -55 167 -49 181 2
7 5 4 5 -5 1 -10 5 -18 9 -18 5 0 17 -15 27 -34 11 -19 22 -33 26 -30 8 4 20
-41 25 -91 1 -16 6 -42 9 -57 6 -23 4 -28 -10 -28 -14 0 -16 -6 -11 -32 5 -25
4 -30 -6 -20 -24 24 -31 11 -7 -14 23 -25 23 -26 2 -15 -24 12 -83 81 -103
121 -12 23 -12 24 3 11 23 -18 22 -1 -2 52 -42 91 -62 197 -45 241 8 22 19 20
31 -6z m-340 -60 c-3 -8 -6 -5 -6 6 -1 11 2 17 5 13 3 -3 4 -12 1 -19z m-606
-301 c-1 -12 -15 -9 -19 4 -3 6 1 10 8 8 6 -3 11 -8 11 -12z m-659 -58 l33 -1
-35 -12 c-22 -8 -38 -23 -46 -42 l-12 -29 -4 29 c-2 24 -10 32 -38 40 l-35 10
35 5 c30 5 35 10 38 36 l4 30 13 -33 c12 -27 20 -32 47 -33z m-4035 -23 c22
-19 28 -32 28 -64 0 -74 -71 -120 -134 -88 -37 20 -51 44 -51 91 0 78 95 115
157 61z m6590 -44 c28 -11 67 -31 86 -46 70 -54 118 -163 101 -231 -7 -27 -34
-35 -34 -11 0 8 -8 21 -18 28 -11 7 -21 20 -24 28 -3 8 -10 -5 -16 -30 l-11
-45 5 50 c7 56 11 68 25 60 5 -4 9 2 9 12 0 11 5 24 12 31 9 9 6 18 -13 38
-24 26 -154 94 -180 94 -8 1 -39 12 -69 26 l-55 25 66 -5 c36 -3 89 -14 116
-24z m-2106 -72 c4 -49 -1 -91 -11 -85 -5 3 -10 34 -10 68 0 38 4 57 9 52 5
-6 11 -21 12 -35z m-3346 8 c-3 -7 -61 -191 -130 -408 -144 -453 -134 -424
-141 -417 -7 7 258 837 268 837 4 0 5 -6 3 -12z m5155 -43 c11 -13 10 -14 -4
-9 -9 3 -16 10 -16 15 0 13 6 11 20 -6z m340 -56 c0 -28 -5 -49 -11 -49 -5 0
-8 -4 -5 -9 9 -14 -5 -42 -17 -34 -6 4 -8 0 -4 -11 4 -9 3 -14 -2 -11 -33 20
-10 -66 27 -103 26 -26 31 -62 21 -148 -9 -69 -8 -76 15 -111 33 -51 50 -122
42 -178 -4 -25 -11 -45 -15 -45 -12 0 -31 23 -31 39 0 32 -50 123 -64 118 -9
-4 -17 8 -25 34 -7 21 -16 40 -21 41 -6 0 -16 1 -22 2 -7 1 -18 7 -24 15 -10
12 -16 11 -39 -7 -36 -29 -41 -23 -15 21 14 23 17 38 10 42 -6 3 -19 24 -31
46 -16 32 -18 44 -8 55 10 12 15 11 40 -3 34 -20 46 -12 31 21 -10 22 -16 24
-76 23 -36 -1 -66 -1 -66 0 0 1 21 12 46 24 25 13 48 27 51 32 3 4 -11 22 -31
39 -27 23 -33 33 -24 39 15 10 92 10 127 0 22 -6 28 -1 57 54 17 33 35 75 39
93 10 46 25 29 25 -29z m-5238 39 c-23 -23 -14 -48 17 -48 30 0 50 28 36 50
-3 6 4 10 16 10 17 0 19 -3 10 -14 -6 -7 -12 -36 -13 -64 -2 -41 -6 -52 -20
-52 -15 0 -16 4 -8 26 14 35 14 34 -26 34 -35 0 -36 -1 -32 -30 4 -27 2 -30
-21 -30 -15 0 -21 4 -15 8 18 11 35 105 21 114 -7 5 1 8 18 8 22 0 26 -3 17
-12z m293 -12 c18 -27 9 -60 -23 -89 -46 -42 -113 4 -91 61 21 54 86 71 114
28z m205 0 c0 -18 -1 -18 -18 -3 -10 10 -26 17 -34 17 -23 0 -31 -30 -10 -36
67 -21 77 -37 42 -69 -27 -25 -90 -14 -83 15 5 19 6 19 22 -2 13 -15 23 -19
39 -14 33 11 27 33 -13 46 -58 19 -41 72 22 68 25 -2 33 -7 33 -22z m142 12
c-23 -23 -14 -48 17 -48 30 0 50 28 36 50 -3 5 3 10 15 10 18 0 19 -3 10 -20
-6 -11 -12 -41 -13 -65 -2 -35 -6 -45 -19 -45 -15 0 -16 4 -8 26 14 35 14 34
-26 34 -35 0 -36 -1 -32 -30 4 -23 1 -30 -12 -30 -16 0 -16 5 -4 57 10 45 11
59 1 65 -7 5 0 8 18 8 22 0 26 -3 17 -12z m219 -2 c-7 -8 -13 -37 -14 -65 -2
-47 -4 -51 -27 -51 -14 0 -20 3 -14 8 13 8 35 102 28 114 -3 4 5 8 17 8 17 0
19 -3 10 -14z m143 2 c2 -7 8 -28 13 -47 l8 -35 25 47 c16 30 32 47 44 47 14
0 16 -3 7 -14 -6 -7 -12 -36 -13 -64 -2 -41 -6 -52 -20 -52 -15 0 -16 4 -8 26
6 14 10 35 10 47 -1 16 -8 8 -27 -28 l-27 -50 -9 35 c-16 63 -20 66 -27 25 -5
-22 -6 -43 -3 -47 2 -5 -6 -8 -18 -8 -18 0 -19 2 -9 15 7 9 13 38 14 65 1 41
4 50 19 50 10 0 19 -6 21 -12z m271 -25 c4 -21 10 -50 15 -65 8 -23 6 -28 -9
-28 -12 0 -17 7 -17 23 1 17 -5 22 -24 22 -18 0 -26 -6 -28 -22 -2 -13 -10
-23 -19 -23 -12 0 -11 5 5 33 10 17 28 47 38 65 24 41 32 40 39 -5z m238 17
c6 -23 -8 -27 -17 -5 -15 40 -76 0 -76 -51 0 -41 29 -53 68 -28 l27 17 -19
-21 c-42 -48 -119 -8 -97 50 15 39 40 58 76 58 24 0 34 -5 38 -20z m139 8 c-7
-7 -12 -20 -12 -31 0 -15 6 -18 33 -15 28 3 32 7 32 31 -1 19 4 27 17 27 15 0
16 -4 8 -25 -5 -14 -11 -43 -12 -65 -2 -32 -7 -40 -23 -40 -15 0 -16 3 -7 12
23 23 14 48 -17 48 -30 0 -50 -28 -36 -50 3 -5 -3 -10 -15 -10 -17 0 -19 3
-11 19 6 11 12 40 13 65 3 38 6 46 23 46 15 0 16 -3 7 -12z m219 -7 c-6 -11
-12 -40 -13 -65 -2 -36 -7 -46 -21 -46 -14 0 -16 4 -8 19 6 11 12 40 13 65 2
36 7 46 21 46 14 0 16 -4 8 -19z m2584 -26 c44 -10 51 -14 29 -14 -37 -1 -160
35 -169 49 -3 5 13 2 37 -6 24 -9 70 -22 103 -29z m180 -5 c3 -5 -3 -10 -15
-10 -12 0 -18 5 -15 10 3 6 10 10 15 10 5 0 12 -4 15 -10z m330 -10 c13 -6 15
-9 5 -9 -8 0 -22 4 -30 9 -18 12 -2 12 25 0z m-198 -6 c-3 -3 -12 -4 -19 -1
-8 3 -5 6 6 6 11 1 17 -2 13 -5z m186 -35 c18 -22 22 -56 9 -74 -7 -11 -58
-45 -66 -45 -2 0 -2 9 1 21 3 12 0 25 -7 29 -9 6 -5 16 18 38 37 36 30 45 -37
45 -32 0 -39 3 -26 8 32 13 88 2 108 -22z m-353 1 c11 -7 5 -10 -22 -10 -21 0
-38 5 -38 10 0 13 40 13 60 0z m-5398 -36 c3 -3 61 -5 128 -6 91 0 123 -4 127
-13 2 -8 -19 -42 -49 -77 -73 -87 -116 -157 -154 -252 -30 -74 -36 -81 -64
-84 -36 -4 -37 4 -7 78 28 68 90 159 157 233 l52 57 -107 0 -106 0 -10 -30
c-11 -29 -39 -42 -39 -17 0 19 48 117 58 117 5 0 11 -3 14 -6z m5307 -8 c-2
-2 -15 -9 -29 -15 -24 -11 -24 -11 -6 3 16 13 49 24 35 12z m-5659 -21 c0 -9
-14 -92 -30 -186 -17 -94 -28 -175 -25 -180 4 -5 19 -9 35 -9 22 0 28 -4 24
-15 -5 -12 -26 -15 -105 -15 -81 0 -99 3 -99 15 0 10 10 15 28 15 15 0 33 4
40 8 12 8 62 248 62 300 0 19 -5 22 -36 22 -50 0 -39 20 22 41 64 21 84 23 84
4z m5969 -77 c18 -28 8 -21 -34 24 -34 35 -35 38 -9 17 17 -13 37 -32 43 -41z
m1227 -47 c12 10 13 9 8 -5 -5 -13 1 -16 32 -16 29 0 35 -3 24 -10 -8 -5 -26
-10 -39 -10 -16 0 -21 -4 -18 -14 4 -10 1 -13 -9 -9 -11 4 -14 -5 -15 -38 -1
-24 -3 -35 -6 -24 -2 11 -6 31 -9 43 -3 17 -10 22 -21 18 -13 -5 -14 -4 -3 9
11 13 8 15 -18 15 -17 0 -34 5 -37 10 -4 6 9 10 31 10 33 0 35 2 23 17 -12 14
-12 15 0 9 16 -10 30 9 33 44 1 14 3 6 5 -18 4 -37 6 -42 19 -31z m-785 32
c-12 -20 -14 -14 -5 12 4 9 9 14 11 11 3 -2 0 -13 -6 -23z m-6193 -39 c4 -29
-34 -61 -56 -48 -39 25 -19 77 27 72 17 -2 27 -10 29 -24z m939 11 c27 -12 39
-12 50 -4 20 17 26 6 27 -57 1 -58 -16 -85 -29 -45 -3 12 -20 34 -36 51 -38
38 -101 42 -143 9 -47 -37 -28 -76 49 -98 83 -25 133 -53 146 -82 31 -77 -50
-159 -158 -159 -26 0 -61 7 -77 15 -26 14 -31 14 -47 -1 -16 -15 -19 -15 -24
-2 -10 25 -1 131 11 135 6 2 19 -15 30 -38 34 -76 110 -100 175 -56 40 26 49
65 22 89 -10 8 -48 25 -85 37 -92 31 -118 52 -118 101 0 85 114 143 207 105z
m1050 0 c27 -12 39 -12 50 -4 20 17 26 6 27 -57 1 -58 -16 -85 -29 -45 -3 12
-20 34 -36 51 -41 40 -107 43 -144 5 -44 -44 -27 -71 65 -100 138 -44 170 -89
118 -165 -46 -67 -156 -92 -224 -51 -30 18 -31 18 -43 -1 -8 -13 -16 -17 -22
-11 -13 13 -7 135 6 140 6 2 21 -17 33 -41 26 -56 69 -80 125 -73 43 6 87 40
87 68 0 37 -14 49 -90 74 -105 35 -130 55 -130 105 0 85 115 143 207 105z
m-727 -5 c0 -6 -11 -15 -24 -20 -28 -10 -29 -13 -52 -152 -21 -128 -15 -151
45 -169 35 -10 45 -9 85 10 53 26 67 57 91 196 19 114 19 115 -5 115 -11 0
-20 7 -20 15 0 12 14 15 65 15 50 0 65 -3 65 -14 0 -8 -10 -16 -22 -18 -25 -3
-35 -35 -58 -175 -19 -119 -70 -174 -168 -181 -73 -5 -118 15 -138 63 -12 30
-11 46 6 142 25 139 25 153 0 153 -11 0 -20 7 -20 15 0 12 15 15 75 15 45 0
75 -4 75 -10z m458 -2 c-3 -7 -14 -14 -26 -16 -13 -2 -24 -13 -27 -25 -18 -76
-53 -292 -49 -299 3 -4 12 -8 20 -8 8 0 14 -7 14 -15 0 -13 -13 -15 -72 -13
-68 3 -100 19 -51 26 12 2 24 11 27 20 6 18 56 291 56 305 0 4 -9 7 -20 7 -11
0 -20 7 -20 15 0 12 15 15 76 15 56 0 75 -3 72 -12z m776 -25 c3 -21 6 -46 6
-55 0 -27 -27 -21 -34 7 -10 38 -56 56 -134 53 l-67 -3 -11 -67 -11 -68 34 0
c45 0 69 14 77 45 4 14 13 25 22 25 10 0 14 -6 11 -17 -3 -10 -8 -36 -11 -58
-13 -80 -18 -95 -31 -95 -8 0 -15 13 -17 33 -3 31 -5 32 -48 32 l-45 0 -11
-70 c-7 -38 -10 -72 -7 -75 10 -11 144 0 171 14 16 8 41 29 55 46 23 27 47 39
47 25 0 -3 -14 -33 -30 -66 l-31 -59 -159 2 c-96 2 -161 7 -163 13 -1 6 8 11
20 13 12 2 24 11 27 20 6 18 56 291 56 305 0 4 -9 7 -20 7 -11 0 -20 7 -20 15
0 13 24 15 159 15 l158 0 7 -37z m244 25 c-3 -7 -13 -15 -24 -16 -10 -2 -22
-7 -26 -10 -10 -10 -60 -301 -53 -312 3 -6 13 -10 21 -10 8 0 14 -7 14 -15 0
-12 -15 -15 -75 -15 -60 0 -75 3 -75 15 0 8 9 15 19 15 11 0 23 6 28 13 4 6
20 79 34 160 l26 149 -24 9 c-43 16 -14 29 63 29 56 0 75 -3 72 -12z m2502
-51 c0 -51 -31 -102 -86 -139 -46 -31 -84 -44 -84 -29 0 6 6 11 13 11 24 0 85
64 92 95 6 28 6 29 -9 10 -14 -20 -15 -19 -26 9 -7 20 -8 32 0 40 7 7 10 6 10
-2 0 -7 5 -12 10 -12 6 0 10 8 10 17 0 13 3 14 11 6 6 -6 12 -23 12 -37 0 -14
4 -23 9 -20 5 3 8 22 7 43 -2 20 1 42 5 49 13 22 26 2 26 -41z m-808 26 c12
12 17 12 33 -2 20 -16 34 -67 15 -56 -5 3 -14 -4 -20 -15 -12 -23 -40 -27 -40
-6 0 8 7 17 16 20 13 5 10 11 -16 29 -19 12 -36 29 -38 37 -4 12 0 11 15 -3
18 -15 23 -16 35 -4z m1498 -1 c0 -4 -9 -13 -20 -20 -16 -10 -20 -10 -18 0 2
7 10 16 18 20 20 9 20 9 20 0z m-1329 -57 c27 -30 31 -48 6 -27 -8 7 -16 10
-19 7 -2 -3 -15 6 -28 20 -13 14 -20 25 -16 25 5 0 2 7 -5 17 -25 29 30 -8 62
-42z m139 49 c0 -9 -41 -66 -62 -87 -26 -25 -22 -8 7 35 14 20 25 42 25 47 0
6 7 11 15 11 8 0 15 -3 15 -6z m-423 -66 c9 -10 38 -20 69 -24 53 -6 81 -24
69 -44 -11 -18 -55 -12 -55 8 0 12 -8 18 -22 18 -13 0 -47 1 -75 2 l-53 2 22
42 c13 25 24 36 26 27 3 -8 11 -22 19 -31z m1430 28 c4 -3 -19 -6 -50 -6 -31
0 -57 4 -57 9 0 10 97 7 107 -3z m-1131 -63 c-7 -7 -26 7 -26 19 0 6 6 6 15
-2 9 -7 13 -15 11 -17z m164 -1 c0 -33 -7 -43 -25 -36 -10 4 -11 12 -3 35 13
37 28 37 28 1z m37 -4 c-3 -8 -6 -5 -6 6 -1 11 2 17 5 13 3 -3 4 -12 1 -19z
m-567 -17 c0 -6 -4 -13 -10 -16 -5 -3 -10 -1 -10 6 0 8 -4 8 -15 -1 -12 -10
-15 -10 -15 1 0 8 -9 3 -20 -11 -19 -24 -20 -25 -20 -3 0 12 7 23 18 26 32 9
72 7 72 -2z m80 -15 c0 -4 24 -23 53 -43 41 -26 53 -40 50 -54 -4 -15 -9 -16
-24 -8 -10 5 -19 14 -19 19 0 6 -6 10 -14 10 -7 0 -20 8 -27 18 -13 15 -12 16
4 3 10 -8 17 -9 17 -3 0 6 -9 16 -20 22 -11 6 -20 7 -20 2 0 -14 -44 -8 -55 8
-12 20 -15 41 -5 35 5 -3 11 -1 15 4 6 11 47 0 45 -13z m147 -11 c0 -8 -4 -15
-9 -15 -10 0 -11 14 -1 23 9 10 10 9 10 -8z m833 -3 c0 -4 -16 -29 -35 -56
-19 -27 -35 -55 -35 -61 0 -7 -10 -23 -23 -37 -12 -13 -33 -38 -45 -54 l-21
-29 -1 27 c0 34 77 180 108 206 17 13 52 17 52 4z m1463 -38 l22 -7 -23 -8
c-12 -5 -22 -16 -23 -26 0 -14 -2 -13 -9 5 -5 12 -15 22 -22 22 -8 0 -6 5 5
11 9 5 18 20 18 32 l2 22 4 -22 c2 -12 14 -25 26 -29z m-2235 6 c19 0 24 -20
9 -35 -12 -12 -17 -12 -26 -1 -6 7 -8 16 -4 19 3 4 -2 17 -13 29 -19 23 -19
23 2 6 11 -10 26 -18 32 -18z m-4584 -2 c16 -26 -4 -53 -40 -53 -35 0 -45 33
-18 59 20 20 43 18 58 -6z m4616 -78 c0 -13 -1 -13 -10 0 -5 8 -10 22 -10 30
0 13 1 13 10 0 5 -8 10 -22 10 -30z m-40 -43 c-12 -14 -38 4 -33 23 5 17 6 17
22 2 10 -10 15 -21 11 -25z m1405 1 c-11 -69 -8 -153 6 -184 19 -38 63 -59
180 -84 89 -19 139 -44 139 -69 0 -14 -81 -18 -145 -8 -64 11 -115 4 -115 -15
0 -6 45 -58 101 -115 105 -108 120 -140 65 -136 -30 2 -67 25 -155 98 -30 24
-58 42 -63 39 -22 -14 3 -95 53 -166 47 -65 -1 -95 -58 -35 -16 17 -47 60 -67
95 -21 34 -41 62 -44 62 -21 0 -33 -46 -27 -101 5 -46 4 -59 -7 -59 -36 1 -68
52 -68 112 0 35 -7 60 -26 89 -38 61 -40 96 -10 162 14 31 28 69 32 84 11 43
39 95 78 142 20 24 36 50 36 58 0 22 56 73 80 73 20 0 22 -3 15 -42z m-1685
22 c0 -5 -5 -10 -11 -10 -5 0 -7 5 -4 10 3 6 8 10 11 10 2 0 4 -4 4 -10z m354
-7 c7 -17 -19 -52 -30 -40 -9 8 4 57 15 57 5 0 12 -8 15 -17z m-203 -3 c20 -6
42 -17 49 -25 11 -13 6 -14 -36 -8 -45 6 -48 5 -35 -10 10 -13 11 -17 1 -17
-7 0 2 -10 20 -22 45 -31 54 -56 12 -34 -40 21 -111 20 -141 0 -29 -21 -13
-34 42 -34 32 0 46 -8 85 -45 26 -25 39 -42 30 -39 -12 4 -18 1 -18 -10 0 -20
-3 -20 -50 4 -52 26 -98 26 -121 -1 -22 -25 -69 -19 -69 9 0 21 36 82 49 82
15 0 52 83 40 90 -17 11 2 42 35 56 38 16 60 17 107 4z m-231 -32 c0 -17 -3
-18 -14 -8 -8 6 -12 18 -9 26 7 19 23 7 23 -18z m815 -81 c34 -59 59 -116 54
-121 -2 -2 -48 -26 -102 -53 l-98 -50 -34 75 c-19 41 -35 80 -35 87 0 7 13 18
30 23 16 6 42 23 57 38 28 28 70 54 88 54 6 0 24 -24 40 -53z m-408 -49 c-3
-7 -5 -2 -5 12 0 14 2 19 5 13 2 -7 2 -19 0 -25z m-656 -154 c13 -14 33 -30
44 -35 31 -14 58 -33 71 -49 15 -19 -1 -42 -25 -36 -9 2 -34 7 -55 11 -37 6
-39 6 -25 -11 8 -10 -7 -1 -33 20 -46 36 -48 41 -48 88 0 27 8 79 17 116 l18
67 6 -72 c4 -58 10 -78 30 -99z m548 84 c-1 -13 -5 -40 -11 -60 -10 -33 -9
-39 10 -55 20 -16 20 -20 6 -38 -14 -19 -16 -19 -25 -2 -8 14 -14 15 -24 7 -8
-6 -12 -17 -9 -24 3 -7 -4 -21 -16 -31 -11 -10 -20 -26 -20 -37 0 -21 -15 -24
-24 -5 -4 9 -7 9 -12 0 -3 -8 -15 -9 -37 -2 -18 5 -43 9 -57 9 -34 0 -100 -64
-101 -99 -1 -14 -2 -43 -3 -64 -2 -21 1 -40 5 -43 9 -5 -9 -64 -24 -79 -7 -7
-8 -4 -4 8 4 11 1 20 -8 23 -8 4 -12 11 -8 18 4 6 -1 5 -10 -3 -14 -11 -17
-11 -19 0 -2 19 -6 152 -8 272 l-1 99 35 34 c30 29 38 33 54 23 15 -9 30 -8
70 5 58 19 100 13 151 -23 16 -12 33 -21 38 -21 5 0 17 25 27 55 18 59 25 68
25 33z m215 -45 c-3 -33 -2 -34 4 -9 l7 29 23 -42 c25 -44 21 -66 -9 -58 -11
3 -19 0 -19 -7 0 -7 -11 -18 -25 -24 -21 -10 -25 -9 -25 3 0 8 -5 15 -11 15
-6 0 -9 -7 -5 -15 3 -10 -1 -15 -14 -15 -23 0 -35 -18 -32 -45 2 -18 0 -17
-19 5 -14 16 -23 21 -26 13 -3 -7 -9 -13 -15 -13 -14 0 0 69 18 87 8 8 15 24
16 36 0 12 1 29 2 37 1 9 11 16 26 16 13 1 26 7 28 13 2 6 10 11 17 11 7 0 16
7 19 16 6 15 8 15 24 1 12 -11 17 -28 16 -54z m107 -20 c-15 -29 -40 -59 -41
-50 0 10 39 67 46 67 3 0 0 -8 -5 -17z m207 -32 c-7 -11 -24 -23 -38 -26 -14
-3 -52 -21 -83 -40 -32 -19 -60 -35 -62 -35 -5 0 0 24 8 36 10 17 177 96 185
89 2 -2 -2 -12 -10 -24z m578 -13 c-12 -40 -17 -50 -22 -46 -5 6 13 58 20 58
3 0 4 -6 2 -12z m-766 -15 c-1 -11 -26 -43 -34 -43 -10 0 -7 25 6 38 13 13 28
16 28 5z m-127 -60 c-7 -2 -21 -2 -30 0 -10 3 -4 5 12 5 17 0 24 -2 18 -5z
m878 -10 c2 -68 10 -100 38 -157 21 -44 43 -72 66 -86 39 -24 47 -37 13 -19
-33 17 -78 61 -78 76 0 7 -4 13 -8 13 -12 0 -51 90 -53 120 -2 47 1 70 11 70
6 0 10 -8 11 -17z m-6107 -50 c4 -21 9 -46 12 -55 3 -12 0 -18 -9 -18 -10 0
-13 7 -10 20 4 16 0 20 -17 20 -13 0 -24 -8 -27 -20 -5 -17 -23 -29 -23 -15 0
10 55 105 61 105 4 0 10 -17 13 -37z m316 17 c0 -15 6 -19 23 -17 19 2 22 -3
22 -35 0 -23 -5 -38 -12 -38 -8 0 -10 12 -6 36 6 35 5 36 -17 24 -16 -9 -21
-18 -17 -36 3 -19 0 -24 -16 -24 -15 0 -17 3 -9 13 6 7 13 32 14 55 3 42 18
60 18 22z m735 0 c-5 -16 -2 -20 17 -18 20 3 23 -2 26 -34 2 -29 -1 -38 -12
-38 -13 0 -14 5 -5 27 5 14 6 30 2 34 -14 14 -35 -7 -36 -35 -1 -14 -7 -26
-12 -26 -8 0 -8 17 -1 55 6 30 14 55 19 55 5 0 5 -9 2 -20z m203 -35 c-3 -46
-6 -55 -22 -55 -14 0 -16 3 -7 14 6 7 12 32 14 55 1 22 5 41 10 41 4 0 6 -25
5 -55z m157 33 c-3 -13 -7 -38 -8 -55 -1 -18 -7 -33 -13 -33 -9 0 -9 12 -3 42
6 23 8 47 5 55 -3 7 1 13 10 13 10 0 13 -7 9 -22z m405 0 c0 -21 -1 -21 -14
-3 -8 11 -19 16 -30 12 -24 -10 -19 -21 14 -34 35 -13 39 -37 10 -53 -26 -14
-60 -4 -60 18 0 13 2 13 14 -3 8 -11 19 -16 30 -12 23 9 20 26 -8 37 -33 12
-39 26 -20 44 24 25 64 21 64 -6z m58 -14 c-11 -41 -5 -64 15 -64 22 0 37 23
39 63 2 20 8 37 15 37 8 0 7 -13 -3 -47 -16 -51 -28 -64 -59 -61 -17 3 -21 12
-23 56 -2 40 0 52 12 52 12 0 13 -6 4 -36z m182 26 c20 -13 2 -42 -31 -50 -15
-4 -25 -14 -27 -28 -2 -12 -10 -22 -18 -22 -11 0 -12 4 -4 19 5 11 11 36 12
55 3 31 6 36 28 36 14 0 32 -5 40 -10z m118 -10 c4 -12 2 -13 -9 -2 -18 17
-48 15 -56 -3 -8 -23 4 -30 23 -14 14 12 16 11 12 -6 -2 -12 -11 -19 -20 -17
-21 3 -32 -27 -13 -34 8 -4 27 1 41 11 25 16 25 16 14 -4 -8 -16 -20 -21 -49
-21 l-39 0 9 42 c6 23 7 48 5 55 -5 11 4 13 36 11 26 -2 43 -9 46 -18z m119 3
c4 -10 -1 -22 -14 -32 -18 -15 -19 -19 -5 -39 10 -15 11 -22 3 -22 -6 0 -17
11 -23 25 -17 38 -34 30 -29 -12 1 -7 -5 -13 -12 -13 -12 0 -13 8 -6 42 6 23
8 47 5 55 -4 9 5 13 35 13 28 0 42 -5 46 -17z m181 -3 c4 -12 2 -13 -9 -2 -18
17 -48 15 -56 -3 -8 -22 4 -30 22 -15 16 13 18 10 9 -14 -3 -9 -11 -13 -16
-10 -10 6 -28 -12 -28 -28 0 -14 35 -9 59 8 22 16 23 16 12 -5 -9 -16 -21 -21
-52 -21 -38 0 -39 1 -32 28 4 15 8 40 8 55 0 26 2 28 39 25 24 -2 41 -9 44
-18z m66 -2 l6 -23 19 23 c11 12 23 22 27 22 4 0 -3 -11 -16 -25 -22 -23 -22
-25 -6 -49 20 -31 20 -36 2 -36 -8 0 -17 12 -20 26 -6 21 -9 24 -21 14 -8 -7
-15 -19 -15 -26 0 -8 -8 -14 -17 -14 -13 0 -11 6 12 30 27 28 27 30 11 55 -13
20 -14 25 -2 25 7 0 17 -10 20 -22z m161 -8 c0 -19 -6 -26 -25 -29 -28 -3 -42
-19 -35 -38 2 -7 -2 -13 -9 -13 -11 0 -12 9 -5 42 6 23 7 48 5 55 -5 11 3 13
32 11 32 -3 37 -6 37 -28z m114 16 c20 -24 9 -69 -21 -86 -36 -19 -62 -5 -66
38 -5 48 59 83 87 48z m179 -8 c2 -10 -9 -29 -24 -43 -26 -24 -26 -25 -5 -25
12 0 19 -4 16 -10 -3 -5 -23 -10 -43 -10 l-37 1 38 30 c20 17 37 40 37 50 0
24 -17 24 -44 2 l-21 -18 19 23 c23 26 59 26 64 0z m102 2 c13 -23 -4 -66 -32
-83 -26 -17 -51 10 -44 47 10 52 56 73 76 36z m108 -2 c2 -10 -9 -30 -25 -44
-27 -26 -27 -27 -5 -21 15 3 22 1 19 -6 -2 -7 -21 -13 -43 -15 l-39 -2 38 31
c20 17 37 40 37 50 0 24 -17 24 -44 2 l-21 -18 19 23 c23 26 59 26 64 0z m90
-46 c-5 -2 -8 -10 -8 -18 0 -8 -4 -14 -10 -14 -5 0 -7 7 -4 15 5 11 -1 15 -22
15 l-28 0 35 36 34 35 5 -33 c3 -18 2 -34 -2 -36z m2212 34 c0 -8 -4 -26 -10
-40 -7 -20 -17 -26 -39 -26 -27 0 -41 14 -41 44 0 6 15 17 33 23 46 15 57 15
57 -1z m-5402 -16 c5 -13 3 -13 -12 -1 -9 8 -20 10 -24 6 -4 -4 -2 -9 3 -12
27 -10 37 -22 32 -38 -8 -20 -48 -17 -55 5 -5 13 -3 13 12 1 12 -10 20 -11 27
-4 8 8 5 13 -10 18 -21 6 -28 25 -14 39 11 11 36 3 41 -14z m150 0 c5 -13 3
-13 -12 -1 -9 8 -20 10 -24 6 -4 -4 -2 -9 3 -12 27 -10 37 -22 32 -38 -8 -20
-48 -17 -55 5 -5 13 -3 13 12 1 12 -10 20 -11 27 -4 8 8 5 13 -10 18 -21 6
-28 25 -14 39 11 11 36 3 41 -14z m207 -14 c0 -32 -23 -53 -49 -43 -21 8 -21
53 2 66 29 17 47 8 47 -23z m55 8 c0 -14 4 -23 10 -19 6 3 10 2 10 -4 0 -11
-19 -25 -26 -19 -11 12 -16 68 -5 68 6 0 11 -12 11 -26z m40 1 c0 -14 4 -25
10 -25 5 0 12 11 16 25 3 14 10 25 15 25 14 0 11 -8 -16 -47 l-24 -36 -11 27
c-13 34 -13 56 0 56 6 0 10 -11 10 -25z m138 -17 c2 -29 0 -38 -12 -38 -13 0
-14 3 -5 19 15 23 5 53 -16 45 -9 -4 -15 -18 -15 -35 0 -19 -5 -29 -15 -29
-11 0 -12 5 -5 25 5 14 9 29 9 33 -3 15 2 18 29 17 24 0 27 -4 30 -37z m122 2
c0 -29 -4 -40 -15 -40 -11 0 -12 5 -5 25 5 14 9 29 9 33 -2 12 1 22 6 22 3 0
5 -18 5 -40z m108 -2 c2 -29 -1 -38 -12 -38 -13 0 -14 5 -5 27 5 14 6 30 2 34
-14 14 -35 -7 -36 -35 -1 -14 -7 -26 -14 -26 -8 0 -9 9 -3 30 5 17 6 30 4 30
-3 0 -3 4 0 8 2 4 17 8 33 7 25 0 28 -4 31 -37z m276 20 c8 -14 6 -22 -11 -39
-37 -38 -83 2 -47 42 20 23 42 22 58 -3z m146 7 c28 -34 -26 -84 -58 -52 -14
14 -13 18 2 41 19 29 38 33 56 11z m117 -25 c-2 -32 -6 -40 -21 -40 -16 0 -17
3 -8 12 7 7 12 22 12 33 0 19 7 35 16 35 1 0 1 -18 1 -40z m53 15 c0 -14 4
-25 10 -25 5 0 12 11 16 25 5 21 24 36 24 19 0 -13 -48 -75 -53 -67 -12 21
-18 73 -8 73 6 0 11 -11 11 -25z m128 5 c5 -13 3 -13 -12 -1 -15 13 -19 13
-27 0 -13 -21 -6 -44 14 -43 9 1 14 -2 11 -7 -8 -14 -30 -11 -44 6 -10 12 -9
20 4 41 18 27 46 29 54 4z m3201 -4 c6 -8 14 -36 18 -64 5 -44 3 -50 -12 -49
-15 2 -22 -11 -34 -58 -20 -76 -26 -85 -58 -85 -22 0 -24 3 -19 25 4 16 2 25
-5 25 -7 0 -9 9 -5 25 4 14 1 44 -5 65 -10 34 -10 43 4 58 10 10 17 24 17 30
0 13 48 41 71 42 9 0 22 -6 28 -14z m-383 -293 c15 -20 40 -43 56 -52 55 -30
61 -36 53 -60 -5 -17 -12 -20 -28 -15 -12 3 -28 13 -34 22 -7 9 -13 12 -13 8
0 -4 -14 3 -31 15 -56 40 -86 140 -57 192 11 20 13 18 19 -26 5 -28 19 -63 35
-84z m1350 -86 c7 -15 9 -25 4 -22 -5 3 -5 -7 1 -25 12 -34 24 -41 16 -9 -4
15 4 11 37 -19 23 -22 49 -41 57 -44 8 -3 12 -7 9 -9 -17 -14 -159 -76 -230
-101 -89 -32 -187 -78 -232 -109 -31 -22 -78 -22 -77 1 0 8 7 38 13 65 10 38
15 46 21 32 4 -9 3 -23 -3 -30 -6 -7 -7 -18 -2 -26 4 -8 6 -21 2 -29 -3 -10
-1 -13 7 -8 6 4 9 16 6 26 -3 11 -2 28 4 38 6 10 6 24 1 32 -5 9 -5 19 1 26 6
7 9 19 7 27 -2 8 26 44 62 79 36 36 79 81 95 101 17 20 40 38 52 42 19 5 23 1
29 -30 3 -20 4 -56 1 -81 -5 -46 7 -60 19 -21 3 12 13 29 20 38 18 21 25 80
14 121 -6 18 -7 41 -4 51 4 13 12 5 31 -35 14 -29 31 -66 39 -81z m-1015 92
c5 -8 9 -10 9 -6 0 12 40 -12 40 -24 0 -6 -5 -7 -12 -2 -7 4 -15 8 -18 9 -3 0
-18 6 -35 13 -16 7 -45 10 -62 7 -38 -6 -43 1 -10 13 30 13 77 7 88 -10z
m-196 -118 c-3 -12 -10 -21 -15 -21 -5 0 -4 11 2 25 13 29 23 26 13 -4z m-390
-1 c-10 -11 -25 -20 -34 -20 -12 1 -10 5 8 20 30 26 49 26 26 0z m428 0 c-3
-11 -9 -20 -14 -20 -10 0 -12 24 -2 33 13 13 21 7 16 -13z m28 -7 c-12 -20
-14 -14 -5 12 4 9 9 14 11 11 3 -2 0 -13 -6 -23z m35 -10 c-11 -11 -19 6 -11
24 8 17 8 17 12 0 3 -10 2 -21 -1 -24z m-409 -7 c-2 -6 -18 -10 -35 -8 -21 2
-37 -3 -51 -17 -12 -12 -25 -21 -31 -21 -5 0 -10 -5 -10 -12 0 -6 -3 -9 -6 -5
-9 9 35 67 50 67 8 0 19 6 26 14 9 12 17 13 36 4 13 -6 23 -16 21 -22z m434
11 c-10 -9 -11 -8 -5 6 3 10 9 15 12 12 3 -3 0 -11 -7 -18z m-647 -41 c-8 -52
-18 -82 -30 -93 -16 -17 -28 -94 -21 -139 5 -28 3 -32 -7 -21 -36 35 -54 107
-27 107 4 0 15 15 26 33 16 27 16 30 2 18 -13 -10 -17 -11 -17 -1 0 9 -7 7
-20 -5 -11 -10 -20 -14 -20 -9 1 17 39 79 40 65 0 -11 6 -9 20 7 11 12 20 23
20 26 0 3 5 17 11 33 7 20 12 24 19 14 4 -8 6 -23 4 -35z m73 2 c-3 -7 -5 -2
-5 12 0 14 2 19 5 13 2 -7 2 -19 0 -25z m1228 -98 c3 -6 -1 -7 -9 -4 -18 7
-21 14 -7 14 6 0 13 -4 16 -10z m-1311 -71 c4 -37 11 -82 16 -100 12 -41 12
-39 2 -39 -14 0 -45 155 -38 185 10 38 13 30 20 -46z m1366 51 c0 -5 -5 -10
-11 -10 -5 0 -7 5 -4 10 3 6 8 10 11 10 2 0 4 -4 4 -10z m-1604 -97 c12 -45
25 -86 29 -92 9 -15 70 -266 90 -371 8 -47 21 -103 28 -124 9 -30 9 -40 0 -43
-7 -3 -10 -12 -7 -21 5 -14 3 -14 -6 1 -7 10 -10 28 -7 39 3 11 3 17 -1 13
-12 -12 -171 593 -172 653 0 59 24 30 46 -55z m2990 -109 c8 3 12 1 9 -4 -3
-5 9 -14 27 -19 33 -9 33 -9 5 -10 -36 -1 -57 -22 -58 -58 l-2 -28 -4 29 c-6
39 -23 54 -69 59 l-39 4 44 1 c33 2 42 5 38 16 -4 10 -1 13 9 9 11 -4 14 5 16
38 l1 44 4 -43 c3 -34 8 -42 19 -38z m-1695 13 c-10 -9 -11 -8 -5 6 3 10 9 15
12 12 3 -3 0 -11 -7 -18z m167 7 c12 -8 27 -12 32 -9 11 7 26 -22 17 -31 -3
-3 -18 4 -34 16 -16 11 -52 25 -79 29 l-49 9 45 1 c27 1 55 -5 68 -15z m696
-49 c22 -40 23 -38 -23 -54 -64 -21 -100 -7 -45 18 20 9 25 16 20 35 -12 48
22 49 48 1z m-883 -2 c-12 -20 -14 -14 -5 12 4 9 9 14 11 11 3 -2 0 -13 -6
-23z m120 18 c-8 -5 -20 -7 -28 -4 -21 8 -15 13 15 13 20 0 23 -3 13 -9z
m-1274 -103 c-2 -18 -4 -6 -4 27 0 33 2 48 4 33 2 -15 2 -42 0 -60z m-331 32
c16 0 16 -1 1 -18 -10 -10 -17 -27 -17 -38 -1 -15 -4 -14 -16 9 -9 16 -24 27
-37 28 -20 1 -20 1 3 8 16 4 26 15 29 31 l3 25 9 -22 c5 -13 16 -23 25 -23z
m1694 10 c0 -5 -5 -10 -11 -10 -5 0 -7 5 -4 10 3 6 8 10 11 10 2 0 4 -4 4 -10z
m450 -30 c7 -17 11 -32 9 -34 -2 -2 -32 -13 -67 -24 l-63 -21 -9 25 c-17 44
-12 53 38 68 68 21 78 20 92 -14z m-500 -25 c16 -9 19 -14 10 -15 -9 0 -20 4
-25 9 -6 5 -26 11 -45 14 l-35 4 35 1 c19 1 46 -5 60 -13z m-20 -115 c0 -5 -2
-10 -4 -10 -3 0 -8 5 -11 10 -3 6 -1 10 4 10 6 0 11 -4 11 -10z m-195 -119
c-6 -5 -25 10 -25 20 0 5 6 4 14 -3 8 -7 12 -15 11 -17z m-1693 -31 c3 -22 9
-26 53 -31 49 -6 49 -6 10 -7 -47 -2 -65 -16 -65 -49 0 -13 -4 -23 -10 -23 -5
0 -10 11 -10 24 0 31 -17 44 -65 49 -39 4 -38 4 9 5 42 2 47 4 36 17 -11 13
-10 14 4 9 12 -5 16 0 16 22 0 33 17 21 22 -16z m1128 21 c0 -11 6 -22 13 -24
9 -4 9 -6 0 -6 -6 -1 -15 4 -18 9 -3 6 -15 10 -26 10 -21 0 -26 16 -6 23 25
11 37 7 37 -12z m53 -68 c-8 -118 -16 -121 -11 -6 1 51 6 93 10 93 4 0 4 -39
1 -87z m54 -25 c-2 -13 -4 -3 -4 22 0 25 2 35 4 23 2 -13 2 -33 0 -45z m-30
-5 c-3 -10 -5 -4 -5 12 0 17 2 24 5 18 2 -7 2 -21 0 -30z m1673 -8 c0 -5 -5
-3 -10 5 -5 8 -10 20 -10 25 0 6 5 3 10 -5 5 -8 10 -19 10 -25z m25 17 c-3 -3
-11 0 -18 7 -9 10 -8 11 6 5 10 -3 15 -9 12 -12z m-45 -22 c6 -11 8 -20 6 -20
-3 0 -10 9 -16 20 -6 11 -8 20 -6 20 3 0 10 -9 16 -20z m-45 -29 c3 -5 2 -12
-3 -15 -5 -3 -9 1 -9 9 0 17 3 19 12 6z m-5225 -80 c0 -5 -7 -11 -15 -15 -15
-5 -20 5 -8 17 9 10 23 9 23 -2z m4947 -43 c-3 -8 -6 -5 -6 6 -1 11 2 17 5 13
3 -3 4 -12 1 -19z m-5026 -4 c-30 -22 -119 -45 -127 -33 -3 5 2 9 10 9 8 0 17
8 20 18 5 15 18 19 63 20 54 1 56 1 34 -14z m86 10 c-3 -3 -12 -4 -19 -1 -8 3
-5 6 6 6 11 1 17 -2 13 -5z m161 -22 c12 -12 22 -24 22 -26 0 -2 -18 0 -41 5
-42 10 -99 35 -99 45 0 2 21 3 48 2 33 -2 54 -10 70 -26z m4722 -2 c0 -16 -2
-30 -4 -30 -2 0 -6 14 -8 30 -3 17 -1 30 4 30 4 0 8 -13 8 -30z m33 10 c3 -11
1 -20 -4 -20 -5 0 -9 9 -9 20 0 11 2 20 4 20 2 0 6 -9 9 -20z m-5930 -29 c69
-31 75 -39 69 -82 -3 -22 -15 -32 -73 -59 -38 -17 -73 -29 -79 -25 -6 3 -10
47 -10 101 0 74 3 94 14 94 8 0 43 -13 79 -29z m5830 9 c3 -11 1 -18 -4 -14
-5 3 -9 12 -9 20 0 20 7 17 13 -6z m-33 0 c0 -5 -2 -10 -4 -10 -3 0 -8 5 -11
10 -3 6 -1 10 4 10 6 0 11 -4 11 -10z m-4340 -10 c0 -5 -22 -10 -50 -10 -27 0
-50 4 -50 8 0 5 23 10 50 11 28 1 50 -3 50 -9z m50 2 c0 -4 -9 -8 -20 -8 -11
0 -20 4 -20 8 0 4 9 8 20 8 11 0 20 -4 20 -8z m145 -12 c-6 -18 -3 -19 42 -15
44 5 45 2 3 -12 -11 -3 -8 -10 14 -28 24 -19 34 -22 49 -13 32 17 67 -5 67
-42 0 -24 -6 -33 -26 -41 -38 -14 -78 13 -71 47 4 23 2 25 -27 22 -26 -2 -31
-7 -31 -28 0 -21 6 -26 35 -31 27 -4 31 -7 17 -13 -26 -12 -86 3 -100 24 -12
21 -67 29 -67 10 0 -5 -11 -17 -25 -26 -23 -15 -27 -15 -50 0 -14 9 -25 25
-25 34 0 31 46 62 93 63 32 0 37 2 22 9 -11 4 -33 6 -50 4 -29 -4 -29 -3 -5 6
l25 9 -25 -2 c-14 -1 -24 -8 -23 -14 2 -8 -10 -12 -32 -11 -19 1 -38 -2 -42
-5 -3 -4 6 -7 20 -7 38 0 33 -18 -5 -22 -57 -5 -48 -57 10 -58 14 0 21 -4 16
-11 -8 -14 -79 -6 -99 11 -21 18 -18 48 5 62 25 16 25 24 0 31 -14 4 -18 10
-14 22 6 13 15 16 48 11 23 -3 46 -6 51 -5 6 0 46 2 90 4 50 2 71 0 55 -5
l-25 -8 28 -1 c21 -1 28 3 26 17 -2 27 0 32 17 32 11 0 14 -6 9 -20z m4112 -2
c-3 -8 -6 -5 -6 6 -1 11 2 17 5 13 3 -3 4 -12 1 -19z m-5637 -18 c0 -13 7 -20
20 -20 20 0 22 -4 22 -40 0 -35 -2 -43 -9 -36 -4 4 -7 19 -8 33 0 14 -6 28
-12 30 -9 3 -13 -6 -13 -26 0 -17 -4 -31 -10 -31 -5 0 -10 25 -10 55 0 30 5
55 10 55 6 0 10 -9 10 -20z m180 -34 c0 -30 -4 -58 -10 -61 -6 -4 -10 17 -10
54 0 34 4 61 10 61 6 0 10 -24 10 -54z m130 -7 c0 -37 -4 -58 -10 -54 -5 3
-10 31 -10 61 0 30 5 54 10 54 6 0 10 -27 10 -61z m460 51 c0 -5 -4 -10 -10
-10 -5 0 -10 5 -10 10 0 6 5 10 10 10 6 0 10 -4 10 -10z m928 -22 c2 -11 -3
-18 -12 -18 -9 0 -16 7 -16 15 0 8 -7 15 -15 15 -8 0 -15 -7 -15 -15 0 -17
-55 -21 -65 -5 -3 6 3 10 14 10 11 0 23 5 26 11 11 17 79 7 83 -13z m-810 -17
c3 -17 0 -22 -11 -18 -7 3 -20 2 -27 -3 -8 -5 6 -9 34 -11 36 -3 43 -2 31 7
-23 17 -19 44 8 44 35 0 67 -11 61 -21 -3 -5 7 -4 22 1 15 6 29 8 32 5 3 -3
-1 -5 -9 -6 -8 0 -4 -4 9 -9 12 -5 22 -16 22 -25 0 -23 -31 -31 -45 -12 -7 9
-15 14 -18 11 -3 -3 -15 -1 -26 6 -12 6 -21 7 -21 2 0 -5 15 -14 33 -20 24 -7
26 -10 11 -11 -23 -1 -51 -27 -40 -38 3 -4 22 -7 41 -7 29 -1 32 -3 20 -15
-20 -20 -192 -27 -252 -10 -47 13 -47 13 -18 21 17 5 38 6 47 4 15 -3 16 -1 8
15 -6 10 -22 22 -37 25 -26 7 -26 7 10 22 21 8 37 18 37 24 0 5 -10 2 -22 -6
-12 -9 -30 -16 -40 -16 -10 0 -20 -10 -24 -25 -3 -14 -11 -25 -16 -25 -6 0 -8
7 -5 15 4 8 2 17 -3 20 -5 3 -8 19 -6 36 3 32 16 52 16 26 0 -13 5 -15 25 -7
14 5 25 7 25 4 0 -4 7 -1 15 6 9 7 18 10 21 7 3 -3 17 -1 32 3 40 13 57 7 60
-19z m-796 -27 c-3 -28 -1 -35 9 -32 8 3 14 19 14 36 0 18 4 31 10 29 11 -4 8
-57 -5 -70 -4 -5 -17 -6 -29 -2 -16 5 -21 15 -21 41 0 21 5 34 13 34 9 0 12
-11 9 -36z m133 9 c0 -16 5 -28 10 -28 6 0 10 12 10 28 0 33 19 30 23 -5 4
-30 -20 -52 -48 -43 -15 5 -20 15 -20 41 0 21 5 34 13 34 7 0 12 -12 12 -27z
m135 -7 c0 -19 -4 -38 -10 -41 -6 -4 -10 10 -10 34 0 23 5 41 10 41 6 0 10
-15 10 -34z m42 2 c2 -18 8 -33 13 -33 6 0 11 15 13 33 4 40 22 43 22 2 0 -32
-22 -50 -51 -43 -14 4 -19 15 -19 39 0 43 18 44 22 2z m92 17 c-4 -10 0 -15
11 -15 11 0 15 5 11 15 -3 9 0 15 9 15 8 0 15 -9 15 -20 0 -15 -7 -20 -26 -20
-16 0 -24 -5 -21 -12 2 -7 13 -13 25 -12 12 0 19 -3 16 -8 -8 -12 -38 -10 -52
4 -13 13 -16 50 -5 61 12 12 22 7 17 -8z m571 -75 c3 -5 -1 -10 -9 -10 -9 0
-16 5 -16 10 0 6 4 10 9 10 6 0 13 -4 16 -10z"/>
<path d="M5422 3435 c-1 -16 10 -57 24 -90 13 -33 26 -64 27 -69 5 -20 42 -53
54 -49 19 8 16 18 -15 50 -15 15 -36 48 -47 73 -11 25 -23 47 -26 50 -4 3 -9
19 -12 35 l-4 30 -1 -30z"/>
<path d="M5450 3250 c0 -5 5 -10 11 -10 5 0 7 5 4 10 -3 6 -8 10 -11 10 -2 0
-4 -4 -4 -10z"/>
<path d="M5845 3189 c-4 -6 -5 -12 -2 -15 2 -3 7 2 10 11 7 17 1 20 -8 4z"/>
<path d="M5415 2950 c-5 -8 10 -50 18 -50 1 0 2 14 2 30 0 30 -8 39 -20 20z"/>
<path d="M5552 2953 c-10 -4 -8 -8 5 -18 14 -11 16 -16 6 -26 -24 -24 -13 -33
11 -10 34 32 40 61 13 60 -12 0 -28 -3 -35 -6z"/>
<path d="M4639 2886 c-2 -3 -17 -7 -33 -10 -15 -3 -34 -10 -42 -17 -7 -6 -21
-9 -29 -5 -8 3 -15 1 -15 -4 0 -18 -38 -50 -44 -37 -2 7 -5 2 -5 -10 -1 -12
-4 -23 -8 -25 -13 -5 -73 -129 -73 -149 0 -33 34 -42 113 -29 223 34 252 42
243 66 -3 8 -2 13 3 10 4 -3 23 11 42 31 31 32 31 34 7 18 -16 -9 -28 -14 -28
-10 0 4 -12 -4 -27 -19 -29 -29 -63 -41 -93 -33 -12 3 -24 -1 -30 -11 -13 -24
-12 -5 1 21 37 73 122 120 239 133 59 6 61 8 39 20 -14 7 -54 18 -89 24 -36 6
-67 15 -70 19 -6 10 -94 24 -101 17z"/>
<path d="M4364 2465 c-15 -20 -25 -37 -23 -39 2 -3 17 13 32 35 35 49 28 52
-9 4z"/>
<path d="M6250 3907 c0 -2 15 -16 33 -33 l32 -29 -29 33 c-28 30 -36 37 -36
29z"/>
<path d="M6336 3797 c3 -10 9 -15 12 -12 3 3 0 11 -7 18 -10 9 -11 8 -5 -6z"/>
<path d="M480 3130 l-25 -25 22 -22 23 -22 25 25 c21 21 22 26 9 31 -9 3 -19
13 -22 22 -6 14 -11 12 -32 -9z"/>
<path d="M7300 2970 c0 -5 5 -10 11 -10 5 0 7 5 4 10 -3 6 -8 10 -11 10 -2 0
-4 -4 -4 -10z"/>
<path d="M7133 2560 c0 -25 2 -35 4 -22 2 12 2 32 0 45 -2 12 -4 2 -4 -23z"/>
<path d="M2183 3002 c-19 -12 -31 -55 -22 -79 15 -40 64 -22 82 30 14 39 -26
71 -60 49z"/>
<path d="M3202 2978 c-16 -16 -15 -28 3 -28 8 0 15 9 15 20 0 23 -2 24 -18 8z"/>
<path d="M5304 2359 c-3 -6 -1 -15 5 -20 6 -5 9 -6 6 -3 -3 4 3 13 13 20 16
12 16 13 0 14 -9 0 -20 -5 -24 -11z"/>
<path d="M456 1921 c-4 -7 -5 -15 -2 -18 9 -9 19 4 14 18 -4 11 -6 11 -12 0z"/>
<path d="M2490 1930 c0 -15 5 -20 18 -18 9 2 17 10 17 18 0 8 -8 16 -17 18
-13 2 -18 -3 -18 -18z"/>
<path d="M2716 1934 c-9 -24 -8 -26 16 -22 29 4 38 38 10 38 -11 0 -23 -7 -26
-16z"/>
<path d="M3137 1944 c-16 -16 -6 -35 16 -32 12 2 22 10 22 18 0 16 -26 25 -38
14z"/>
<path d="M3233 1924 c-18 -28 -9 -56 20 -62 22 -4 50 42 42 68 -9 28 -41 25
-62 -6z"/>
<path d="M3531 1931 c-24 -45 -1 -93 26 -55 16 22 14 66 -4 71 -6 2 -16 -5
-22 -16z"/>
<path d="M3745 1920 c-15 -17 -16 -20 -3 -20 9 0 19 7 22 16 10 25 1 27 -19 4z"/>
<path d="M900 1905 c-13 -15 -7 -45 8 -45 16 0 34 29 28 45 -7 19 -20 19 -36
0z"/>
<path d="M1637 1914 c-4 -4 -7 -18 -7 -31 0 -18 5 -24 18 -21 10 2 17 12 17
27 0 24 -15 37 -28 25z"/>
<path d="M1790 1905 c-14 -17 -5 -48 13 -43 14 5 23 58 9 58 -5 0 -15 -7 -22
-15z"/>
<path d="M5291 1784 c0 -11 3 -14 6 -6 3 7 2 16 -1 19 -3 4 -6 -2 -5 -13z"/>
<path d="M5960 1271 c0 -5 -3 -18 -6 -28 -5 -16 -4 -16 10 1 18 23 20 36 6 36
-5 0 -10 -4 -10 -9z"/>
<path d="M1820 405 c0 -9 6 -12 15 -9 8 4 12 10 9 15 -8 14 -24 10 -24 -6z"/>
<path d="M1983 383 c-31 -4 -32 -4 -12 -24 21 -21 64 -26 75 -8 3 6 20 17 38
25 l31 13 -50 -1 c-27 -1 -64 -3 -82 -5z"/>
<path d="M1904 345 c-4 -9 0 -23 9 -32 21 -21 49 -9 45 19 -4 28 -45 38 -54
13z m41 -13 c0 -18 -20 -15 -23 4 -3 10 1 15 10 12 7 -3 13 -10 13 -16z"/>
<path d="M2174 345 c-4 -9 0 -23 9 -32 21 -21 49 -9 45 19 -4 28 -45 38 -54
13z m41 -25 c-5 -8 -11 -8 -17 -2 -6 6 -7 16 -3 22 5 8 11 8 17 2 6 -6 7 -16
3 -22z"/>
<path d="M1407 326 c-4 -10 -5 -21 -2 -24 9 -9 17 6 13 25 -3 17 -4 17 -11 -1z"/>
<path d="M1460 321 c0 -5 5 -13 10 -16 6 -3 10 -2 10 4 0 5 -4 13 -10 16 -5 3
-10 2 -10 -4z"/>
<path d="M1430 310 c0 -5 5 -10 11 -10 5 0 7 5 4 10 -3 6 -8 10 -11 10 -2 0
-4 -4 -4 -10z"/>
<path d="M1390 279 c0 -3 14 -6 30 -7 17 0 30 4 30 9 0 5 -13 8 -30 7 -16 -1
-30 -5 -30 -9z"/>
<path d="M8340 4646 c0 -2 7 -9 15 -16 9 -7 15 -8 15 -2 0 5 -7 12 -15 16 -8
3 -15 4 -15 2z"/>
<path d="M8304 4627 c-8 -22 11 -46 26 -31 7 7 5 17 -4 30 -14 18 -15 18 -22
1z m20 -12 c3 -8 1 -15 -4 -15 -6 0 -10 7 -10 15 0 8 2 15 4 15 2 0 6 -7 10
-15z"/>
<path d="M8250 4604 c0 -5 5 -16 10 -24 7 -12 12 -12 22 -2 9 9 9 15 -1 25
-12 10 -13 8 -7 -8 6 -20 6 -20 -9 -1 -8 11 -15 16 -15 10z"/>
<path d="M8049 4582 c-27 -23 -21 -53 10 -45 27 7 45 29 37 48 -7 20 -19 19
-47 -3z"/>
<path d="M8234 4578 c6 -20 -10 -25 -17 -5 -4 9 -6 9 -6 0 -1 -16 19 -27 29
-17 5 5 5 16 -1 24 -9 13 -10 12 -5 -2z"/>
<path d="M8173 4555 c-7 -7 -8 -17 -2 -26 7 -11 9 -10 9 4 0 10 5 15 10 12 6
-3 10 -2 10 4 0 16 -14 20 -27 6z"/>
<path d="M7923 4545 c-7 -19 13 -36 37 -32 8 1 15 11 15 22 0 26 -42 34 -52
10z"/>
<path d="M8292 4500 c0 -14 2 -19 5 -12 2 6 2 18 0 25 -3 6 -5 1 -5 -13z"/>
<path d="M8240 4506 c0 -2 7 -6 15 -10 8 -3 15 -1 15 4 0 6 -7 10 -15 10 -8 0
-15 -2 -15 -4z"/>
<path d="M7991 4486 c-59 -21 -74 -50 -69 -135 3 -47 10 -76 19 -82 26 -17
112 0 137 27 19 22 22 36 22 103 0 46 -5 82 -12 89 -15 15 -53 14 -97 -2z m65
-51 c4 -8 2 -36 -2 -62 -7 -38 -14 -48 -34 -53 -42 -11 -50 -2 -50 56 0 40 4
56 18 63 25 15 62 13 68 -4z"/>
<path d="M8210 4489 c0 -6 -6 -9 -14 -6 -10 4 -12 0 -8 -15 3 -13 7 -16 12 -8
4 7 12 10 18 6 6 -4 8 2 5 14 -6 22 -13 27 -13 9z"/>
<path d="M8144 4478 c-4 -6 -2 -14 4 -16 7 -2 10 -8 6 -13 -3 -5 0 -9 5 -9 6
0 11 7 11 15 0 8 -5 15 -11 15 -5 0 -7 5 -4 10 3 6 4 10 1 10 -3 0 -8 -5 -12
-12z"/>
<path d="M7689 4453 c-9 -2 -25 -21 -37 -42 -12 -21 -29 -44 -37 -51 -13 -11
-15 -7 -15 25 0 30 -3 36 -16 31 -9 -3 -20 -6 -25 -6 -5 0 -9 -18 -9 -40 0
-29 -4 -40 -15 -40 -9 0 -15 -9 -15 -25 0 -16 6 -25 15 -25 11 0 15 -12 15
-45 0 -25 2 -45 4 -45 3 0 17 5 32 10 24 10 26 14 20 50 -8 51 4 51 45 0 25
-31 37 -39 53 -34 40 12 38 22 -9 73 l-47 50 41 51 c53 67 53 78 0 63z"/>
<path d="M8247 4413 c-4 -3 -7 -32 -7 -63 0 -58 -11 -80 -42 -80 -15 0 -18 9
-18 65 0 63 -1 65 -25 65 -24 0 -25 -2 -25 -74 0 -101 7 -106 115 -80 41 10
45 18 45 102 0 63 -2 72 -18 72 -10 0 -22 -3 -25 -7z"/>
<path d="M7829 4340 c-13 -43 -33 -53 -42 -21 -3 14 -11 18 -26 14 -33 -9 -35
-21 -7 -63 14 -22 26 -53 26 -70 0 -27 3 -31 23 -28 17 2 23 11 27 43 3 22 13
54 22 70 10 17 24 45 33 63 l16 32 -30 0 c-27 0 -32 -5 -42 -40z"/>
<path d="M7889 4213 c5 -18 1 -38 -11 -62 -53 -104 87 -194 202 -130 64 36 85
92 55 149 -19 36 -41 44 -135 45 -41 0 -85 6 -97 13 -20 11 -21 10 -14 -15z
m68 -57 c0 0 2 -8 3 -16 5 -32 -1 -50 -15 -50 -8 0 -15 -4 -15 -10 0 -17 16
-11 44 15 14 13 26 31 26 40 0 17 9 19 30 5 13 -8 13 -11 1 -19 -11 -7 -8 -13
14 -27 18 -12 32 -15 42 -8 22 14 20 29 -4 32 -31 5 -29 22 2 22 31 0 50 -32
35 -60 -11 -21 -54 -27 -80 -10 -9 5 -17 5 -21 -1 -3 -5 -29 -12 -57 -14 -43
-4 -53 -1 -62 15 -8 15 -6 21 7 29 17 10 17 10 1 11 -10 0 -18 5 -18 10 0 6 8
11 18 11 16 1 16 2 0 6 -21 5 -24 19 -5 26 9 4 46 -1 54 -7z m157 8 c9 -3 14
-10 11 -14 -6 -10 -55 0 -55 11 0 10 21 12 44 3z"/>
</g>
</svg>
